<?xml version="1.0" encoding="UTF-8"?><svg id="Layer_1" xmlns="http://www.w3.org/2000/svg" viewBox="0 0 500 100"><defs><style>.cls-1{font-family:UniSansRegular, 'Uni Sans';font-size:30.25689px;}.cls-1,.cls-2{fill:#fff;}.cls-1,.cls-3,.cls-4,.cls-5{stroke:#fff;stroke-linecap:round;}.cls-1,.cls-4{stroke-linejoin:round;}.cls-6{letter-spacing:.40003em;}.cls-7{letter-spacing:.39999em;}.cls-8{letter-spacing:.32502em;}.cls-9{letter-spacing:.35em;}.cls-10{letter-spacing:.27402em;}.cls-3,.cls-4,.cls-5{fill:none;stroke-width:3px;}.cls-3,.cls-5{stroke-miterlimit:10;}.cls-5{stroke-dasharray:7.09585 7.09585;}</style></defs><rect width="500" height="100"/><text class="cls-1" transform="translate(159.66607 67.22487)"><tspan class="cls-7" x="0" y="0">A</tspan><tspan class="cls-8" x="30.83105" y="0" xml:space="preserve">T  </tspan><tspan class="cls-6" x="90.16406" y="0">M</tspan></text><line class="cls-3" x1="92.65442" y1="23.47207" x2="112.82049" y2="53.03125"/><line class="cls-3" x1="92.65442" y1="23.47207" x2="67.55031" y2="54.31923"/><line class="cls-3" x1="68.27344" y1="58.59253" x2="72.2688" y2="58.40137"/><line class="cls-5" x1="79.35645" y1="58.06226" x2="104.16357" y2="56.87537"/><line class="cls-3" x1="107.70752" y1="56.70575" x2="111.70288" y2="56.51459"/><line class="cls-3" x1="92.65442" y1="23.47207" x2="99.46508" y2="76.50934"/><line class="cls-4" x1="67.71805" y1="60.70161" x2="99.0801" y2="76.31764"/><line class="cls-3" x1="99.46508" y1="76.50934" x2="113.45689" y2="59.89441"/><path class="cls-2" d="M116.24219,53.81744c.16479,0,.33008.01465.49072.04346,1.21143.21753,2.14307,1.22571,2.26538,2.44995.07446.74768-.1377,1.4502-.61255,2.03064-.47583.58105-1.12207.92767-1.86523,1.00195-.09277.00916-.18579.01373-.27881.01373-.16479,0-.32983-.01459-.49048-.04346-1.21143-.21753-2.14307-1.22565-2.26538-2.45038-.07446-.74744.13745-1.44983.61206-2.02997.47607-.58124,1.12231-.92792,1.86621-1.0022.09253-.00916.1853-.01373.27808-.01373M63.90747,56.03125c.41089,0,.81836.09296,1.21118.27637.61719.28809,1.10913.81158,1.34985,1.43658.35474.92047.24121,1.89252-.31177,2.66711-.43579.61066-1.05737.99878-1.79639,1.12225-.15308.02545-.30786.03839-.46045.03839-.16235,0-.32593-.01459-.48633-.0434-1.34985-.24237-2.30908-1.41803-2.28125-2.79547.0271-1.33386,1.1355-2.53839,2.47095-2.68512.10107-.01111.20337-.01672.3042-.01672M116.24219,50.81744c-.19092,0-.38232.0094-.57324.02826-1.53345.1532-2.91528.89417-3.89209,2.08704-.97583,1.19293-1.42896,2.6944-1.27637,4.22766.25513,2.55353,2.19604,4.65283,4.72046,5.10608.33691.06049.67847.0907,1.02075.0907.19116,0,.38257-.0094.57349-.02826,1.5332-.1532,2.91528-.89417,3.89185-2.08704.97583-1.19293,1.42896-2.6944,1.27661-4.22766-.25537-2.55353-2.19604-4.65283-4.72046-5.10608-.33716-.06049-.67871-.0907-1.021-.0907h0ZM63.90747,53.03125c-.21069,0-.42139.01154-.63184.03467-2.83496.31146-5.08472,2.75494-5.14258,5.60632-.05859,2.89209,2.00635,5.31641,4.75024,5.80908.33643.06042.67627.09064,1.0166.09064.31812,0,.63672-.02637.95386-.07928,1.51953-.25378,2.84985-1.08453,3.74487-2.33856,1.13037-1.5835,1.39648-3.60193.66919-5.48883-.52026-1.35022-1.56909-2.46405-2.88013-3.07605-.79834-.37268-1.6377-.55798-2.48022-.55798h0Z"/><path class="cls-2" d="M99.46875,80.7793c-.25586,0-.51172-.02246-.76172-.06738-1.95605-.35059-3.43262-2.0498-3.50879-4.03809-.08887-2.35254,1.75195-4.34082,4.10352-4.43066l.16406-.00293c.25586,0,.51074.02246.75684.06641,1.95801.35156,3.43359,2.05078,3.50879,4.04004.04395,1.13965-.3584,2.22754-1.13379,3.06543-.77539.83496-1.83008,1.32031-2.96875,1.36426l-.16016.00293Z"/><path class="cls-2" d="M99.46387,73.73956c.16748,0,.33325.01453.49292.04315,1.24951.22437,2.22803,1.3512,2.27612,2.62274.02881.74884-.22559,1.43555-.73535,1.9859-.51025.55048-1.17651.85681-1.92822.88593l-.10718.00208c-.16382,0-.32861-.01465-.48926-.04352-1.24854-.22418-2.22705-1.35071-2.27588-2.61829-.05786-1.52698,1.13647-2.8172,2.65869-2.87598l.10815-.00201M99.46387,70.73956c-.07349,0-.14673.00134-.22021.00409-3.17773.12274-5.66479,2.80725-5.54443,5.98737.10352,2.68719,2.09863,4.98267,4.74341,5.45758.33545.06024.67749.09076,1.01953.09076.07471,0,.14966-.00146.22437-.00439,1.54004-.05957,2.96436-.71454,4.01147-1.8446,1.04761-1.13068,1.5918-2.60162,1.53271-4.14001-.10181-2.68835-2.09692-4.98517-4.74365-5.46039-.33643-.06036-.67969-.09039-1.02319-.09039h0Z"/><path class="cls-2" d="M92.75391,27.76074c-.25,0-.50391-.02246-.75195-.06641-1.8457-.33105-3.24512-1.80566-3.47949-3.66797-.14355-1.13184.16309-2.25195.8623-3.15234.69922-.90234,1.70801-1.47656,2.83887-1.61914.17969-.02246.35938-.03418.53906-.03418.25098,0,.50391.02246.75.06738,1.84766.33105,3.24707,1.80566,3.48242,3.66895.14355,1.13086-.16309,2.25-.8623,3.15039-.69922.90234-1.70801,1.47656-2.83887,1.61914-.18066.02344-.36035.03418-.54004.03418Z"/><path class="cls-2" d="M92.7627,20.72064c.16284,0,.32617.01453.48584.04321,1.198.21515,2.10547,1.17157,2.25806,2.38104.09424.74396-.09912,1.4505-.56006,2.04431-.45312.58417-1.10693.95691-1.84155,1.04962-.11621.01465-.23389.02209-.3501.02209-.16284,0-.32642-.01453-.48633-.04321-1.198-.21509-2.10547-1.17163-2.25806-2.38049-.09399-.7442.09937-1.45093.5603-2.04486.45972-.59259,1.09619-.95551,1.84106-1.04956.11646-.01471.23438-.02216.35083-.02216M92.7627,17.72064c-.24243,0-.48511.01532-.72681.04584-1.52856.19293-2.89136.96973-3.83569,2.18744-.94507,1.21759-1.35938,2.73029-1.16602,4.25958.31787,2.51666,2.20801,4.50879,4.70435,4.95697.33569.0603.67578.09045,1.01636.09045.24219,0,.48486-.01526.72632-.04578,1.52856-.19293,2.8916-.96979,3.83594-2.18744.94507-1.21759,1.35938-2.73029,1.16577-4.25958-.31763-2.51666-2.20776-4.50879-4.7041-4.95703-.33569-.0603-.67554-.09045-1.01611-.09045h0Z"/><text class="cls-1" transform="translate(294.04888 67.5276)"><tspan class="cls-9" x="0" y="0">W </tspan><tspan class="cls-10" x="55.7627" y="0"> </tspan><tspan class="cls-9" x="70.40723" y="0">RKS</tspan></text><path class="cls-2" d="M229.42285,64.38184c-3.46289,0-6.51562-2.45801-7.25977-5.84375-.87598-4.00391,1.66797-7.97852,5.67188-8.8584.52734-.11523,1.06543-.17383,1.59668-.17383,3.46582,0,6.51855,2.45898,7.25977,5.84668.42578,1.93945.07031,3.92773-1.00098,5.60156-1.07031,1.67188-2.72852,2.82715-4.66895,3.25391-.52539.11523-1.0625.17383-1.59863.17383Z"/><path class="cls-2" d="M229.4314,51.5061c2.53271,0,4.76465,1.79761,5.30737,4.27631.31079,1.41632.05078,2.86981-.73193,4.09222-.7832,1.22272-1.99585,2.06775-3.41626,2.37988-.38232.08423-.77515.12689-1.16724.12689-2.53125,0-4.7627-1.79663-5.30566-4.26929-.64087-2.92938,1.21875-5.83575,4.14087-6.47766.38989-.08514.78467-.12836,1.17285-.12836M229.4314,47.5061c-.67847,0-1.36035.07501-2.02637.22046-5.08008,1.11597-8.30737,6.15613-7.19482,11.2406.94312,4.29584,4.81836,7.41425,9.21313,7.41425.67969,0,1.36157-.07385,2.02734-.22046,2.46167-.54095,4.56519-2.00696,5.92432-4.12872,1.35938-2.12292,1.81055-4.64807,1.27075-7.10736-.94116-4.2981-4.81641-7.41876-9.21436-7.41876h0Z"/><path class="cls-2" d="M343.29004,51.5061c2.53296,0,4.76465,1.79755,5.30737,4.27631.31079,1.41632.05078,2.86993-.73169,4.09222-.7832,1.22272-1.99585,2.06775-3.41602,2.37982-.38281.08423-.77539.12695-1.16748.12695-2.53125,0-4.7627-1.79663-5.30566-4.26947-.64111-2.92926,1.21851-5.83557,4.14087-6.47748.38989-.08514.78442-.12836,1.17261-.12836M343.29004,47.5061c-.67847,0-1.36011.07501-2.02612.22046-5.08008,1.11597-8.30762,6.15613-7.19482,11.2406.94312,4.29584,4.81836,7.41425,9.21313,7.41425.67944,0,1.36133-.07385,2.02734-.22046,2.46167-.54095,4.56519-2.00696,5.92432-4.12872,1.35913-2.12292,1.8103-4.64807,1.27051-7.10736-.94092-4.2981-4.81616-7.41876-9.21436-7.41876h0Z"/></svg>