<?xml version="1.0" encoding="UTF-8"?><svg id="Layer_1" xmlns="http://www.w3.org/2000/svg" viewBox="0 0 500 100"><defs><style>.cls-1,.cls-2,.cls-3,.cls-4{stroke:#000;stroke-linecap:round;}.cls-1,.cls-2,.cls-4{fill:none;stroke-width:3px;}.cls-1,.cls-3{stroke-linejoin:round;}.cls-5{letter-spacing:.40003em;}.cls-6{letter-spacing:.39999em;}.cls-7{letter-spacing:.32502em;}.cls-8{letter-spacing:.35em;}.cls-9{letter-spacing:.27402em;}.cls-2,.cls-4{stroke-miterlimit:10;}.cls-3{font-family:UniSansRegular, 'Uni Sans';font-size:30.25689px;}.cls-4{stroke-dasharray:7.09585 7.09585;}</style></defs><text class="cls-3" transform="translate(159.66607 67.22485)"><tspan class="cls-6" x="0" y="0">A</tspan><tspan class="cls-7" x="30.83105" y="0" xml:space="preserve">T  </tspan><tspan class="cls-5" x="90.16406" y="0">M</tspan></text><line class="cls-2" x1="92.65442" y1="23.47207" x2="112.82049" y2="53.03125"/><line class="cls-2" x1="92.65442" y1="23.47207" x2="67.55031" y2="54.31923"/><line class="cls-2" x1="68.27344" y1="58.59253" x2="72.2688" y2="58.40137"/><line class="cls-4" x1="79.35645" y1="58.06226" x2="104.16357" y2="56.87537"/><line class="cls-2" x1="107.70752" y1="56.70581" x2="111.70288" y2="56.51465"/><line class="cls-2" x1="92.65442" y1="23.47207" x2="99.46508" y2="76.50934"/><line class="cls-1" x1="67.71805" y1="60.70161" x2="99.0801" y2="76.31764"/><line class="cls-2" x1="99.46508" y1="76.50934" x2="113.45689" y2="59.89441"/><path d="M116.24219,53.81738c.16479,0,.32983.01465.49072.04358,1.21143.21753,2.14307,1.22571,2.26538,2.44983.07446.74768-.1377,1.45032-.61255,2.03064-.47559.58105-1.12207.92761-1.86597,1.00208-.09277.00916-.18579.01367-.27856.01367-.16455,0-.3291-.01453-.48999-.04346-1.21143-.21753-2.14307-1.22559-2.26538-2.45044-.07446-.74731.13745-1.44971.61206-2.02991.47607-.58118,1.12231-.92786,1.86621-1.0022.09253-.00916.1853-.01379.27808-.01379M63.90723,56.03125c.41089,0,.8186.09302,1.21143.27637.61719.28809,1.10913.81165,1.34985,1.43652.35474.92053.24121,1.89246-.31177,2.66724-.43579.6106-1.05737.99866-1.79663,1.12219-.15283.02551-.30786.03845-.46045.03845-.16211,0-.32544-.01465-.48608-.04346-1.34985-.24231-2.30908-1.41809-2.28125-2.79541.0271-1.33398,1.1355-2.53845,2.4707-2.68518.10132-.01111.20386-.01672.3042-.01672M116.24219,50.81738c-.19116,0-.38232.00952-.57324.02832-1.53345.1532-2.91528.89417-3.89209,2.08704-.97583,1.19299-1.42896,2.69446-1.27637,4.22766.25513,2.55347,2.19604,4.65283,4.72046,5.10608.33691.06055.67822.0907,1.02026.0907.19141,0,.38281-.0094.57397-.02832,1.5332-.1532,2.91528-.89417,3.89185-2.08691.97583-1.19299,1.42896-2.69446,1.27661-4.22778-.25537-2.55347-2.19604-4.65271-4.72046-5.10596-.33716-.06055-.67871-.09082-1.021-.09082h0ZM63.90723,53.03125c-.21045,0-.42114.0116-.63159.03467-2.83496.3114-5.08472,2.755-5.14258,5.60632-.05859,2.89209,2.00635,5.31641,4.75024,5.80908.33643.06042.67603.0907,1.01636.0907.31812,0,.63696-.02649.9541-.07935,1.51953-.25378,2.84985-1.08447,3.74487-2.33862,1.13037-1.5835,1.39648-3.60181.66919-5.48877-.52026-1.35022-1.56909-2.46399-2.88013-3.07605-.79858-.37268-1.6377-.55798-2.48047-.55798h0Z"/><path d="M99.46875,80.7793c-.25586,0-.51172-.02246-.76172-.06738-1.95605-.35059-3.43262-2.0498-3.50879-4.03809-.08887-2.35254,1.75195-4.34082,4.10352-4.43066l.16406-.00293c.25586,0,.51074.02246.75684.06641,1.95801.35156,3.43359,2.05078,3.50879,4.04004.04395,1.13965-.3584,2.22754-1.13379,3.06543-.77539.83496-1.83008,1.32031-2.96875,1.36426l-.16016.00293Z"/><path d="M99.46387,73.7395c.16748,0,.3335.01453.49292.04321,1.24951.22437,2.22803,1.3512,2.27612,2.62268.02881.7489-.22559,1.43567-.73535,1.98596-.51025.55054-1.17651.85693-1.92773.88599l-.10669.00208c-.16431,0-.32935-.01477-.49048-.04358-1.24829-.22424-2.22681-1.35059-2.27563-2.61816-.05786-1.5271,1.13647-2.81738,2.6582-2.8761l.10864-.00208M99.46387,70.7395c-.07349,0-.14697.00146-.22021.00415-3.17773.12268-5.66479,2.80725-5.54443,5.98743.10352,2.68713,2.09863,4.98267,4.74341,5.45752.33594.0603.67798.09082,1.02051.09082.07446,0,.14893-.00146.22339-.00439,1.54004-.05957,2.96436-.7146,4.01147-1.8446,1.04761-1.13074,1.5918-2.60168,1.53271-4.14014-.10181-2.68823-2.09692-4.98511-4.74365-5.46033-.33667-.06042-.67993-.09045-1.02319-.09045h0Z"/><path d="M92.75391,27.76074c-.25,0-.50391-.02246-.75195-.06641-1.8457-.33105-3.24512-1.80566-3.47949-3.66797-.14355-1.13184.16309-2.25195.8623-3.15234.69922-.90234,1.70801-1.47656,2.83887-1.61914.17969-.02246.35938-.03418.53906-.03418.25098,0,.50391.02246.75.06738,1.84766.33105,3.24707,1.80566,3.48242,3.66895.14355,1.13086-.16309,2.25-.8623,3.15039-.69922.90234-1.70801,1.47656-2.83887,1.61914-.18066.02344-.36035.03418-.54004.03418Z"/><path d="M92.76245,20.7207c.16284,0,.32642.01453.48608.04321,1.198.21509,2.10547,1.17151,2.25806,2.38086.09424.74402-.09912,1.45068-.56006,2.04443-.45312.58411-1.10693.95691-1.84204,1.04968-.11621.01465-.23389.02209-.3501.02209-.1626,0-.32593-.01453-.4856-.04321-1.19824-.21509-2.10571-1.17163-2.2583-2.38062-.09399-.74414.09937-1.45081.5603-2.0448.45972-.59265,1.09619-.95557,1.84106-1.04956.11621-.01465.23413-.02209.35059-.02209M92.76245,17.7207c-.24243,0-.48486.01526-.72656.04578-1.52856.19287-2.89136.96973-3.83569,2.1875-.94507,1.21753-1.35938,2.73022-1.16602,4.25952.31787,2.51672,2.20801,4.50879,4.70435,4.95703.33569.0603.67554.09045,1.01587.09045.24243,0,.48511-.01526.72681-.0459,1.52856-.19287,2.8916-.96973,3.83594-2.18738.94507-1.21765,1.35938-2.73022,1.16577-4.25964-.31763-2.5166-2.20776-4.50867-4.7041-4.95691-.33569-.0603-.67578-.09045-1.01636-.09045h0Z"/><text class="cls-3" transform="translate(294.04888 67.52759)"><tspan class="cls-8" x="0" y="0">W </tspan><tspan class="cls-9" x="55.7627" y="0"> </tspan><tspan class="cls-8" x="70.40723" y="0">RKS</tspan></text><path d="M229.42285,64.38184c-3.46289,0-6.51562-2.45801-7.25977-5.84375-.87598-4.00391,1.66797-7.97852,5.67188-8.8584.52734-.11523,1.06543-.17383,1.59668-.17383,3.46582,0,6.51855,2.45898,7.25977,5.84668.42578,1.93945.07031,3.92773-1.00098,5.60156-1.07031,1.67188-2.72852,2.82715-4.66895,3.25391-.52539.11523-1.0625.17383-1.59863.17383Z"/><path d="M229.4314,51.5061c2.53271,0,4.76465,1.79761,5.30737,4.27625.31079,1.41638.05078,2.86987-.73193,4.09229-.7832,1.22266-1.99585,2.06775-3.4165,2.37988-.38257.08423-.77515.12695-1.16699.12695-2.53101-.00012-4.7627-1.79675-5.30566-4.26929-.64087-2.92944,1.21875-5.83582,4.14111-6.47778.38965-.08508.78418-.1283,1.17261-.1283M229.4314,47.5061c-.67847,0-1.36035.07495-2.02637.22046-5.08008,1.11597-8.30737,6.15613-7.19482,11.2406.94312,4.29578,4.81836,7.41418,9.21313,7.41431.67969,0,1.36157-.07397,2.02734-.22058,2.46167-.54089,4.56519-2.00696,5.92432-4.12866,1.35938-2.12292,1.81055-4.64807,1.27075-7.10742-.94116-4.29797-4.81641-7.4187-9.21436-7.4187h0Z"/><path d="M343.29004,51.5061c2.53296,0,4.76465,1.79749,5.30737,4.27625.31079,1.41638.05078,2.87-.73169,4.09229-.7832,1.22266-1.99585,2.06775-3.41602,2.37976-.38306.08435-.77588.12708-1.16748.12708-2.53101-.00012-4.7627-1.79675-5.30566-4.26953-.64111-2.92932,1.21851-5.83557,4.14111-6.47754.38965-.08508.78418-.1283,1.17236-.1283M343.29004,47.5061c-.67847,0-1.36011.07495-2.02612.22046-5.08008,1.11597-8.30762,6.15613-7.19482,11.2406.94312,4.29578,4.81836,7.41418,9.21313,7.41431.67944,0,1.36133-.07397,2.02734-.22058,2.46167-.54089,4.56519-2.00696,5.92432-4.12866,1.35913-2.12292,1.8103-4.64807,1.27051-7.10742-.94092-4.29797-4.81616-7.4187-9.21436-7.4187h0Z"/></svg>